<svg xmlns="http://www.w3.org/2000/svg" xmlns:xlink="http://www.w3.org/1999/xlink" version="1.1" x="0px" y="0px" viewBox="14 0 1586 1200" enable-background="new 14 0 1586 1200" xml:space="preserve">
<path stroke="" stroke-width="2" stroke-miterlimit="10" d="M441.2,206.8c2.1,0,12.6,3.2,18.8,0  c6.2-3.2,10.5,9.4,23.5,7.3c13.1-2.1,34-7.3,52.3-17.8c18.3-10.5,27.7-16.7,29.9-18.8s6.8-4.1,9.4-5.3c2.6-1.1,35.5,6.8,46,0  c10.5-6.8,11.5-3.3,19.9-0.1c8.4,3.2,14.1,2.8,18.8,0.1c4.7-2.6,25.2,5.3,28.2,10.9c3.2,5.8-1.1,19.4,10,16.7  c10.9-2.6,17.3-11.5,20.3-13.1c3.2-1.5,13.5,1.5,17.8,0c4.1-1.5,10.9,7.9,16.2,4.4c5.3-3.5,7.3-9.1,11.5-9.7s32.9-11.5,36.1-16.7  c3.2-5.3,11.5,6.2,23,9.4s37.6,0,42.9-4.1c5.3-4.1,13.1,3.2,17.8-2.1c4.7-5.3,7.9-14.7,16.2-15.2s22-6.8,25.6-10.5  c3.6-3.6,29.3-7.3,37.1-9.4c7.9-2.1,24.1-3.2,28.2-12.6s6.2-10,17.3-6.2c10.9,3.6,30.3-2.1,41.9-5.8c11.5-3.6,18.8,2.1,30.8,0  c12-2.1,22.5-8.8,26.1-13.5c3.6-4.7,7.9-7.3,7.9-7.3l390.6-7.9c0,0,10.9,12.6,11.5,19.9c0.6,7.3,10.5,7.9,12,14.7  c1.5,6.8,1.1,13.1,7.9,10.9c6.8-2.1,12,2.6,16.2,7.3c4.1,4.7,14.1,0,19.9,7.9c5.8,7.9,2.1,13.1,8.3,20.3  c6.2,7.3,17.8,18.8,10.5,27.7c-7.3,8.8-32.9,63.7-34.6,75.8c-1.5,12-5.8,45.5-12,52.3c-6.2,6.8-2.6,10.9-7.3,15.6  c-4.7,4.7-13.1,6.8-11.5,18.3c1.5,11.5,6.2,11.5-0.6,28.2c-6.8,16.7-8.8,28.2-14.1,30.3c-5.3,2.1-19.9,7.3-22,15.2  c-2.1,7.9-12.6,40.2-14.1,48.1c-1.5,7.9-15.2,13.5-14.7,22.5c0.6,8.8-3.2,20.9-2.1,24.6c1.1,3.6,12.6,10,8.4,15.6  c-4.1,5.8-2.6,19.4,5.3,17.3s5.3-10.5,12-4.7c6.8,5.8,7.9,15.2,13.1,10.5s12.6,0.6,14.1,5.3s16.7,4.1,15.2,13.5  c-1.5,9.4-8.8,21.4-12,22c-3.2,0.6,3.6,7.9,5.3,15.2c1.5,7.3-1.5,16.7-6.2,18.8c-4.7,2.1,6.2,10,5.3,11.5  c-1.1,1.5-4.7,10.9-4.7,10.9l-10.5,16.7l18.8,493c0,0-401,15.2-576.1,16.2c-175.2,1.1-863.7-15.2-863.7-15.2s-21.6-19.4-24.7-26.1  c-3.2-6.8-5.3-21.4-6.2-27.7c-1.1-6.2-6.2-14.7-6.2-14.7s-2.1-17.8-2.1-19.9c0-2.1,0-23.5,0-29.3c0-5.8,6.8-27.2,8.4-35.5  c1.5-8.3,2.1-18.3-2.1-24.1s-6.2-12-9.4-16.7c-3.2-4.7-7.3-10.9-9.4-8.8s-5.3-22-8.4-25.2c-3.2-3.2,6.2-12.6,10.5-21.4  c4.1-8.8,15.6-52.3,19.9-64.3c4.1-12,10.5-29.9,8.4-34c-2.1-4.1-3.6-10.5-3.6-10.5s22-20.3,26.7-39.3c4.7-18.8,22-73.7,23-84.2  c1.1-10.5,11.5-59,11.5-70.7c0-11.5,6.8-72.2,7.9-80.1c1.1-7.9,7.9-53.9,6.8-66.9c-1.1-13.1,8.8-24.6,6.2-34.6  c-2.6-10-0.6-36.1,2.1-42.3c2.6-6.2,7.9-13.5,7.9-18.3c0-4.7-0.6-28.2,0.6-32.9c1.1-4.7,8.4-24.6,8.8-28.8c0.6-4.1,6.2-6.2,6.2-6.2  s-3.2-7.9-4.1-10.9c-1.1-3.2,5.8-15.6,6.2-17.3c0.6-1.5-4.7-8.3-5.3-12c-0.6-3.6-4.1-4.1-5.8-3.6c-1.5,0.6,9.4-8.8,10-14.1  c0.6-5.3-6.8-16.7-4.7-23.5c2.1-6.8,3.6-13.5,7.3-10c3.6,3.6,9.4,17.3,10.9,12c1.5-5.3-0.6-14.7-2.1-18.8  c-1.5-4.1-2.6-10.5-7.3-10.5s0.6-22,2.1-25.2c1.5-3.2,10.5-2.6,8.8-7.3c-1.5-4.7-12.6-3.6-12.6-3.6s-1.5-10-2.6-15.6  c-1.1-5.8,6.2-24.6,4.7-32.4c-1.5-7.9-7.9-16.7-7.9-16.7s13.5-2.6,14.7-10.9c1.1-8.4-2.6-32.4-3.6-37.6C173,40,163.6,25,163.2,21.2  c-0.6-3.6,10.5,2.1,14.7,7.9s12,13.1,13.5,11.5c1.5-1.5,10.9-18.8,16.2-11.5c5.3,7.3,18.3,10.9,24.1,7.9  c5.8-3.2,16.7-16.5,20.9-16.9c4.1-0.4,16.7,20.5,26.7,24.6s28.8,6.2,32.9-0.6s7.3-7.3,7.3-7.3s12-1.5,17.8,4.7  c5.8,6.2,27.2,15.6,29.9,23c2.6,7.3,15.6,30.8,16.7,37.6c1.1,6.8,6.2,35.5,5.3,41.9c-1.1,6.2,6.2,5.3,4.1,11.5s-7.3,23,3.2,31.4  c10.5,8.3,19.9,5.3,26.7,8.8C429.8,199.5,441.2,206.8,441.2,206.8z"/>
</svg>
