<svg xmlns="http://www.w3.org/2000/svg" width="100" height="100" enable-background="new 0 0 100 100" viewBox="0 0 100 100"><circle cx="72.225" cy="42.061" r="18.073" fill="#8ECB6E"/><circle cx="66.489" cy="79.658" r="14.692" fill="#8ECB6E"/><circle cx="27.63" cy="45.154" r="14.692" fill="#8ECB6E"/><path fill="#22331A" d="M93.599,31.954c0.309-0.784,0.313-1.528,0.021-2.19c-0.318-0.742-0.887-2.067-6.779-2.294
				c2.495-4.914,2.575-11.238,2.574-12.099c-0.004-2.565-0.387-3.523-1.008-4.175c-0.021-0.022-0.042-0.044-0.063-0.065
				c-0.657-0.656-1.601-1.063-4.27-1.063c-0.859,0-7.173,0.088-12.057,2.563c-0.118-2.938-0.645-6.059-2.282-6.762
				c-0.316-0.139-0.711-0.219-1.057-0.219c-1.938,0-6.954,3.911-10.402,8.355c-1.79-3.496-3.069-3.563-3.645-3.594
				c-0.04-0.002-0.086-0.003-0.126-0.003c-3.461,0-8.082,9.933-8.603,16.665c-0.131,1.692-0.214,3.571-0.302,5.562
				c-0.193,4.381-0.412,9.346-1.212,12.247c-0.003,0.012-0.007,0.022-0.01,0.034c0.12-3.33-0.017-6.904-0.671-10.258
				c-1.216-6.224-3.854-11.608-5.854-15.029c-4.138-7.079-5.51-7.079-6.33-7.079c-0.156,0-0.316,0.015-0.471,0.044
				c-1.573,0.3-2.619,2.542-3.288,4.867c-3.986-2.976-9.677-4.298-11.489-4.298c-0.706,0-1.286,0.153-1.767,0.464
				c-1.602,1.029-2.163,4.644-2.353,7.495c-0.121,1.821-0.103,4.096,0.378,6.263c-1.192-0.179-2.238-0.265-3.001-0.265
				c-0.663,0-2.044,0-2.868,1.155c-0.299,0.41-0.62,1.11-0.458,2.12c0.218,1.348,2.026,5.457,4.803,8.929
				c-2.907,0.883-3.198,1.938-3.35,2.485c-1.142,4.243,9.672,9.404,19.278,12.536c4.81,1.567,8.515,3.51,10.422,4.611
				c-8.686,8.887-11.463,19.457-8.227,31.472c0.301,1.115,1.31,1.851,2.412,1.851c0.216,0,0.435-0.028,0.652-0.087
				c1.333-0.359,2.123-1.731,1.764-3.064c-2.756-10.229-0.517-18.929,6.814-26.513c1.127,2.019,2.854,5.463,4.286,9.855
				C48.9,84.236,53.55,91.837,56.912,91.837c0.216,0,0.471-0.033,0.68-0.089c0.542-0.144,1.604-0.426,2.493-3.346
				c3.616,2.905,8.006,4.843,9.469,4.844h0.001c0.736,0,1.267-0.273,1.565-0.491c1.307-0.937,1.311-3.455,0.944-5.873
				c1.307,0.286,2.772,0.431,4.389,0.431c0.317,0,7.796-0.027,9.326-2.406c0.567-0.876,0.616-1.957,0.18-3.99
				c-0.149-0.695-1.271-5.583-4.018-9.273c2.315-0.67,4.553-1.716,4.879-3.292c0.214-1.129,0.456-2.409-7-6.774
				c-3.429-2.007-8.826-4.655-15.065-5.875c-2.411-0.472-5.137-0.711-8.101-0.711c-0.585,0-1.165,0.012-1.739,0.028
				c2.937-0.737,7.701-0.954,11.938-1.141c1.987-0.088,3.865-0.171,5.554-0.302c6.88-0.529,16.838-5.22,16.663-8.74
				c-0.029-0.565-0.097-1.836-3.566-3.619C89.724,37.947,93.001,33.475,93.599,31.954z M14.855,43.599
				c0.494-0.088,1.025-0.169,1.585-0.235c1.022-0.122,1.861-0.862,2.119-1.859c0.246-0.949-0.091-1.953-0.845-2.567
				c-0.046-0.039-0.094-0.075-0.144-0.11c-2.126-1.523-3.974-4.26-5.14-6.395c1.157,0.201,2.495,0.509,3.821,0.948
				c1.088,0.362,2.292-0.068,2.904-1.045s0.478-2.244-0.325-3.07c-0.127-0.131-0.236-0.269-0.311-0.383l-0.285-0.446
				c-1.588-2.468-1.189-7.585-0.68-10.077c2.486,0.564,7.29,2.312,8.905,4.819l0.256,0.394c0.067,0.104,0.138,0.241,0.223,0.436
				c0.454,1.034,1.541,1.644,2.663,1.468c1.117-0.168,1.982-1.065,2.11-2.188c0.13-1.129,0.337-2.215,0.566-3.173
				c2.187,3.346,5.253,9.004,6.521,15.502c1.244,6.366,0.337,13.938-0.388,18.199c-2.287-1.226-5.708-2.851-9.925-4.225
				C21.238,47.228,17.117,45.081,14.855,43.599z M63.795,60.608c6.491,1.27,12.15,4.335,15.5,6.522
				c-0.96,0.229-2.046,0.438-3.175,0.567c-1.13,0.129-2.03,1.005-2.19,2.131c-0.161,1.126,0.459,2.218,1.508,2.658
				c0.154,0.064,0.286,0.133,0.448,0.237l0.37,0.238c2.467,1.59,4.224,6.406,4.793,8.887c-1.096,0.229-2.76,0.464-4.597,0.464
				c-2.391,0-4.337-0.404-5.507-1.157l-0.399-0.257c-0.138-0.087-0.27-0.193-0.405-0.324c-0.828-0.801-2.092-0.933-3.069-0.321
				c-0.975,0.612-1.405,1.812-1.043,2.903c0.445,1.343,0.751,2.679,0.95,3.823c-2.135-1.166-4.872-3.014-6.396-5.141
				c-0.009-0.013-0.019-0.025-0.027-0.037c-0.059-0.08-0.123-0.159-0.185-0.227c-0.661-0.721-1.68-0.987-2.609-0.69
				c-0.931,0.3-1.601,1.114-1.716,2.085c-0.066,0.559-0.147,1.091-0.234,1.585c-1.481-2.261-3.629-6.382-5.993-13.634
				c-1.375-4.219-3-7.64-4.226-9.928c2.727-0.464,6.809-1.003,11.062-1.003C59.296,59.991,61.699,60.199,63.795,60.608z
				 M79.06,39.339c-0.057,0.024-0.113,0.052-0.168,0.08c-0.897,0.451-1.438,1.396-1.372,2.398c0.065,1.004,0.728,1.871,1.679,2.199
				c1.156,0.399,2.188,0.826,3.042,1.219c-1.403,0.821-3.354,1.768-5.604,2.456l-1.217-3.167c-0.148-0.387-0.582-0.58-0.97-0.431
				c-0.386,0.148-0.579,0.583-0.431,0.97l1.162,3.023c-1.014,0.24-2.071,0.421-3.159,0.505c-0.159,0.013-0.329,0.022-0.492,0.034
				l-0.909-3.906c-0.095-0.404-0.503-0.657-0.9-0.561c-0.403,0.094-0.654,0.497-0.561,0.9l0.852,3.66
				c-1.071,0.06-2.201,0.111-3.38,0.163c-0.095,0.004-0.189,0.009-0.284,0.013l-0.081-1.508c-0.022-0.414-0.383-0.742-0.789-0.709
				c-0.414,0.022-0.731,0.376-0.709,0.789l0.081,1.495c-1.232,0.058-2.461,0.121-3.658,0.202l0.453-2.776
				c0.066-0.409-0.211-0.795-0.619-0.861c-0.411-0.07-0.794,0.21-0.861,0.619l-0.513,3.137c-2.39,0.202-4.6,0.497-6.381,0.988
				c-2.136,0.589-4.212,1.304-6.188,2.128c0.824-1.978,1.539-4.054,2.128-6.189c0.95-3.445,1.172-8.483,1.387-13.355
				c0.086-1.948,0.167-3.787,0.291-5.397c0.322-4.158,2.012-7.916,3.357-10.215c0.394,0.853,0.82,1.884,1.219,3.039
				c0.32,0.928,1.153,1.582,2.13,1.674c0.969,0.089,1.917-0.397,2.404-1.249c0.022-0.04,0.063-0.116,0.083-0.157
				s0.041-0.084,0.06-0.127c1.346-3.11,4.519-6.294,6.825-8.197c0.105,1.532,0.129,3.501-0.09,5.551
				c-0.123,1.145,0.552,2.225,1.635,2.616c1.08,0.394,2.293-0.008,2.931-0.964c0.138-0.206,0.285-0.388,0.452-0.555l0.409-0.405
				c2.496-2.495,8.407-3.401,11.771-3.401c0.125,0,0.242,0.001,0.352,0.004c0.054,2.898-0.727,9.42-3.412,12.109l-0.406,0.406
				c-0.165,0.165-0.351,0.316-0.551,0.449c-0.959,0.638-1.358,1.848-0.968,2.931s1.476,1.752,2.616,1.638
				c1.045-0.111,2.15-0.168,3.284-0.168c0.824,0,1.59,0.03,2.268,0.077C85.355,34.821,82.171,37.995,79.06,39.339z"/><path fill="#22331A" d="M74.682 24.293c0 0-.699.529-1.944 1.53-.646.52-.748 1.464-.229 2.109.297.368.731.56 1.17.56.33 0 .662-.108.939-.331 1.19-.958 1.863-1.468 1.874-1.476.66-.5.79-1.44.291-2.102C76.283 23.923 75.34 23.792 74.682 24.293zM68.105 29.688c-1.206 1.038-2.404 2.098-3.597 3.17.029-1.063.253-2.171.719-3.32.311-.769-.06-1.643-.827-1.954-.767-.309-1.643.06-1.954.827-.956 2.361-1.204 4.656-.736 6.822.01.048.039.086.054.132-2.151 2-4.27 4.046-6.338 6.125-.371.373-.739.746-1.102 1.117-.579.593-.567 1.543.025 2.121.292.285.67.427 1.048.427.39 0 .779-.151 1.073-.452.354-.363.715-.729 1.081-1.096.298-.3.604-.594.904-.892.063.018.126.038.193.047.683.096 1.371.143 2.063.143 2.349 0 4.748-.546 7.157-1.63.755-.341 1.092-1.229.752-1.984-.341-.755-1.229-1.091-1.984-.752-1.788.806-3.555 1.247-5.274 1.339 2.843-2.725 5.752-5.379 8.7-7.916.628-.54.699-1.487.158-2.115C69.681 29.219 68.735 29.147 68.105 29.688zM53.761 66.398c.31.164.622.332.933.501.552.299 1.102.61 1.652.918.439 2.212 1.491 4.312 3.148 6.245.297.346.717.523 1.14.523.346 0 .692-.119.976-.361.629-.539.701-1.486.162-2.115-.529-.618-.955-1.258-1.328-1.906 1.467.89 2.922 1.801 4.351 2.741.254.167.54.247.823.247.487 0 .966-.237 1.254-.676.455-.691.264-1.622-.429-2.077-.867-.571-1.743-1.132-2.626-1.686.385-.032.789-.029 1.22.03.819.119 1.578-.458 1.692-1.278.114-.821-.458-1.578-1.278-1.692-1.627-.227-3.107-.015-4.405.631-.18.089-.332.211-.457.353-1.479-.873-2.968-1.724-4.465-2.535-.32-.173-.641-.345-.958-.513-.729-.389-1.641-.109-2.027.623C52.75 65.103 53.029 66.01 53.761 66.398zM35.139 43.272c-.33-.598-.674-1.192-1.015-1.788.644-2.165.689-4.515.124-6.998-.185-.808-.989-1.312-1.797-1.129-.808.185-1.313.989-1.129 1.797.164.721.242 1.416.28 2.099-.886-1.43-1.791-2.85-2.726-4.246-.463-.689-1.396-.872-2.081-.413-.688.461-.873 1.393-.413 2.081.562.839 1.114 1.687 1.658 2.539-.387-.154-.773-.362-1.158-.638-.673-.484-1.609-.328-2.093.345s-.328 1.61.345 2.093c1.334.957 2.743 1.459 4.19 1.495.012 0 .024 0 .037 0 .225 0 .436-.054.627-.143.87 1.445 1.717 2.899 2.524 4.358.171.31.339.62.506.929.271.503.788.788 1.321.788.24 0 .484-.058.711-.18.729-.393 1.002-1.303.608-2.032C35.49 43.911 35.316 43.592 35.139 43.272z"/></svg>